<svg xmlns="http://www.w3.org/2000/svg" width="36" height="36" viewBox="0 0 685 474">
  <defs>
    <linearGradient id="g" x1="0" y1="0" x2="0" y2="1">
      <stop offset="0%" stop-color="#0E5297"/>
      <stop offset="100%" stop-color="#0C3167"/>
    </linearGradient>
  </defs>
  <g fill="url(#g)" fill-rule="evenodd">
    <path d="M 532.00 423.00 L 477.00 383.00 L 472.00 381.00 L 459.00 389.00 L 427.00 405.00 L 415.00 409.00 L 395.00 418.00 L 351.00 432.00 L 327.00 438.00 L 282.00 447.00 L 275.00 447.00 L 268.00 449.00 L 238.00 452.00 L 237.00 453.00 L 199.00 455.00 L 198.00 456.00 L 173.00 456.00 L 172.00 457.00 L 168.00 456.00 L 163.00 457.00 L 141.00 456.00 L 141.00 458.00 L 146.00 458.00 L 167.00 463.00 L 200.00 467.00 L 201.00 468.00 L 230.00 470.00 L 231.00 471.00 L 244.00 471.00 L 245.00 473.00 L 339.00 473.00 L 340.00 471.00 L 352.00 471.00 L 353.00 470.00 L 362.00 470.00 L 363.00 469.00 L 372.00 469.00 L 373.00 468.00 L 396.00 466.00 L 397.00 465.00 L 435.00 459.00 L 448.00 455.00 L 460.00 453.00 L 489.00 444.00 L 492.00 442.00 L 510.00 436.00 L 531.00 426.00 Z"/>
    <path d="M 333.00 221.00 L 333.00 243.00 L 332.00 244.00 L 332.00 260.00 L 331.00 261.00 L 330.00 278.00 L 363.00 296.00 L 443.00 345.00 L 538.00 409.00 L 561.00 427.00 L 566.00 429.00 L 586.00 430.00 L 587.00 431.00 L 628.00 435.00 L 629.00 436.00 L 642.00 437.00 L 643.00 438.00 L 655.00 439.00 L 656.00 440.00 L 682.00 444.00 L 682.00 442.00 L 637.00 406.00 L 586.00 371.00 L 547.00 347.00 L 465.00 302.00 L 463.00 302.00 L 449.00 294.00 L 447.00 294.00 L 416.00 278.00 L 414.00 278.00 L 360.00 252.00 L 360.00 250.00 L 362.00 248.00 L 364.00 248.00 L 386.00 236.00 L 388.00 236.00 L 482.00 189.00 L 484.00 189.00 L 518.00 172.00 L 544.00 161.00 L 544.00 156.00 L 539.00 141.00 L 535.00 141.00 L 530.00 144.00 L 513.00 150.00 L 499.00 157.00 L 455.00 174.00 L 445.00 179.00 L 434.00 182.00 L 409.00 193.00 L 341.00 218.00 L 336.00 221.00 Z"/>
    <path d="M 316.00 33.00 L 284.00 32.00 L 271.00 36.00 L 246.00 62.00 L 241.00 69.00 L 239.00 70.00 L 228.00 84.00 L 220.00 92.00 L 217.00 97.00 L 209.00 105.00 L 145.00 187.00 L 87.00 271.00 L 60.00 313.00 L 57.00 320.00 L 40.00 347.00 L 15.00 391.00 L 2.00 416.00 L 0.00 417.00 L 0.00 419.00 L 5.00 419.00 L 8.00 417.00 L 11.00 417.00 L 14.00 415.00 L 23.00 413.00 L 38.00 407.00 L 41.00 407.00 L 75.00 395.00 L 78.00 395.00 L 111.00 333.00 L 127.00 305.00 L 130.00 302.00 L 198.00 285.00 L 202.00 285.00 L 261.00 271.00 L 275.00 269.00 L 276.00 270.00 L 276.00 288.00 L 275.00 289.00 L 273.00 366.00 L 272.00 367.00 L 269.00 438.00 L 287.00 436.00 L 303.00 432.00 L 309.00 429.00 L 312.00 401.00 L 313.00 400.00 L 313.00 392.00 L 314.00 391.00 L 317.00 346.00 L 318.00 345.00 L 318.00 332.00 L 319.00 331.00 L 319.00 319.00 L 320.00 318.00 L 322.00 255.00 L 323.00 254.00 L 323.00 203.00 L 324.00 202.00 L 323.00 103.00 L 322.00 102.00 L 322.00 87.00 L 321.00 86.00 L 321.00 72.00 L 320.00 71.00 L 318.00 35.00 Z M 274.00 92.00 L 275.00 93.00 L 275.00 110.00 L 276.00 111.00 L 276.00 156.00 L 277.00 157.00 L 277.00 209.00 L 276.00 210.00 L 277.00 224.00 L 276.00 225.00 L 276.00 237.00 L 224.00 254.00 L 218.00 257.00 L 215.00 257.00 L 202.00 262.00 L 199.00 262.00 L 196.00 264.00 L 181.00 268.00 L 178.00 270.00 L 175.00 270.00 L 157.00 277.00 L 144.00 280.00 L 143.00 277.00 L 200.00 188.00 L 253.00 115.00 L 272.00 92.00 Z"/>
    <path d="M 75.00 31.00 L 75.00 33.00 L 95.00 29.00 L 101.00 29.00 L 102.00 28.00 L 129.00 25.00 L 130.00 24.00 L 137.00 24.00 L 138.00 23.00 L 166.00 21.00 L 167.00 20.00 L 179.00 20.00 L 180.00 19.00 L 199.00 19.00 L 200.00 18.00 L 241.00 17.00 L 242.00 18.00 L 272.00 18.00 L 273.00 19.00 L 299.00 20.00 L 300.00 21.00 L 309.00 21.00 L 310.00 22.00 L 344.00 26.00 L 392.00 37.00 L 438.00 53.00 L 473.00 70.00 L 491.00 81.00 L 509.00 94.00 L 536.00 120.00 L 549.00 137.00 L 557.00 150.00 L 566.00 170.00 L 571.00 187.00 L 573.00 197.00 L 573.00 204.00 L 574.00 205.00 L 575.00 230.00 L 574.00 231.00 L 573.00 246.00 L 569.00 265.00 L 563.00 283.00 L 556.00 297.00 L 548.00 309.00 L 535.00 324.00 L 535.00 326.00 L 602.00 368.00 L 604.00 368.00 L 607.00 365.00 L 621.00 345.00 L 632.00 323.00 L 640.00 300.00 L 648.00 261.00 L 649.00 222.00 L 648.00 221.00 L 647.00 202.00 L 643.00 181.00 L 635.00 157.00 L 625.00 137.00 L 608.00 112.00 L 589.00 92.00 L 574.00 80.00 L 573.00 78.00 L 543.00 58.00 L 505.00 39.00 L 490.00 34.00 L 482.00 30.00 L 476.00 29.00 L 457.00 22.00 L 442.00 19.00 L 434.00 16.00 L 430.00 16.00 L 426.00 14.00 L 406.00 11.00 L 400.00 9.00 L 382.00 7.00 L 381.00 6.00 L 374.00 6.00 L 373.00 5.00 L 356.00 4.00 L 355.00 3.00 L 329.00 2.00 L 328.00 0.00 L 239.00 0.00 L 238.00 2.00 L 224.00 2.00 L 223.00 3.00 L 193.00 5.00 L 192.00 6.00 L 171.00 8.00 L 170.00 9.00 L 132.00 15.00 L 100.00 23.00 L 78.00 31.00 Z"/>
  </g>
</svg>
